# xmcd
#
# Track frame offsets:
#	150
#	3379
#	12460
#	33720
#	62614
#	86967
#	110847
#	111597
#	128476
#	139858
#	155304
#	170776
#	182648
#	203878
#	215489
#	225999
#
# Disc length: 3247 seconds
#
# Revision: 1
# Processed by: cddbd v1.5.2PL0 Copyright (c) Steve Scherf et al.
# Submitted via: audiograbber 1.83.01
#
DISCID=e40cad10
DTITLE=Clarence White - White/Rice and White/Parsons
DYEAR=1973
DGENRE=Country
TTITLE0=Clarence White - Tony Rice - Intro
TTITLE1=Clarence White - Tony Rice - Faded Love
TTITLE2=Clarence White - Tony Rice - I Am A Pilgrim
TTITLE3=Clarence White - Tony Rice - Bugle Call Rag
TTITLE4=Clarence White - Tony Rice - New River Train
TTITLE5=Clarence White - Tony Rice - Nine Pound Hammer
TTITLE6=Clarence White - Tony Rice - 10 sec space
TTITLE7=Clarence White - Gene Parsons - Common People
TTITLE8=Clarence White - Gene Parsons - Truck Driving Man
TTITLE9=Clarence White - Gene Parsons - Greensleeves
TTITLE10=Clarence White - Gene Parsons - Sing Me Back Home
TTITLE11=Clarence White - Gene Parsons - Louisianna Rain
TTITLE12=Clarence White - Gene Parsons - The Green, Green Grass Of Home
TTITLE13=Clarence White - Gene Parsons - Sweet Suzanna From Louisanna
TTITLE14=Clarence White - Gene Parsons - Washed My Hands In The Muddy Water
TTITLE15=Clarence White - Gene Parsons - Mom And Dad's Waltz
EXTD=
EXTT0=
EXTT1=
EXTT2=
EXTT3=
EXTT4=
EXTT5=
EXTT6=
EXTT7=
EXTT8=
EXTT9=
EXTT10=
EXTT11=
EXTT12=
EXTT13=
EXTT14=
EXTT15=
PLAYORDER=
